<svg width="21" height="21" viewBox="0 0 21 21" fill="none" xmlns="http://www.w3.org/2000/svg">
<path d="M3.06066 0.93934C2.47487 0.353553 1.52513 0.353553 0.93934 0.93934C0.353553 1.52513 0.353553 2.47487 0.93934 3.06066L3.06066 0.93934ZM17.8682 19.9895C18.454 20.5753 19.4037 20.5753 19.9895 19.9895C20.5753 19.4037 20.5753 18.454 19.9895 17.8682L17.8682 19.9895ZM0.93934 3.06066L17.8682 19.9895L19.9895 17.8682L3.06066 0.93934L0.93934 3.06066Z" fill="#F2A900"/>
<path d="M0.93934 17.8683C0.353553 18.4541 0.353553 19.4038 0.93934 19.9896C1.52513 20.5754 2.47487 20.5754 3.06066 19.9896L0.93934 17.8683ZM19.9895 3.06076C20.5753 2.47497 20.5753 1.52523 19.9895 0.93944C19.4037 0.353654 18.454 0.353654 17.8682 0.93944L19.9895 3.06076ZM3.06066 19.9896L19.9895 3.06076L17.8682 0.93944L0.93934 17.8683L3.06066 19.9896Z" fill="#F2A900"/>
</svg>
